<svg width="9" height="10" viewBox="0 0 9 10" fill="none" xmlns="http://www.w3.org/2000/svg">
<path d="M2.00073 10C1.6554 10 1.3894 9.91133 1.20273 9.734C1.0254 9.54733 0.936734 9.286 0.936734 8.95C0.936734 8.614 1.0254 8.35733 1.20273 8.18C1.3894 8.00267 1.6554 7.914 2.00073 7.914H3.26073V2.188H4.43673L2.40673 3.434C2.16407 3.58333 1.9354 3.644 1.72073 3.616C1.50607 3.57867 1.32407 3.48533 1.17473 3.336C1.0254 3.18667 0.927401 3.00467 0.880734 2.79C0.834068 2.57533 0.852734 2.36067 0.936734 2.146C1.02073 1.93133 1.18873 1.74933 1.44073 1.6L3.37273 0.395999C3.57807 0.265333 3.78807 0.167333 4.00273 0.102C4.22673 0.0366662 4.46007 0.00399935 4.70273 0.00399935C5.0574 0.00399935 5.33273 0.0973329 5.52873 0.284C5.72473 0.461333 5.82273 0.722667 5.82273 1.068V7.914H6.94274C7.28807 7.914 7.5494 8.00267 7.72673 8.18C7.9134 8.35733 8.00673 8.614 8.00673 8.95C8.00673 9.286 7.9134 9.54733 7.72673 9.734C7.5494 9.91133 7.28807 10 6.94274 10H2.00073Z" fill="white"/>
</svg>
