<svg width="24" height="8" viewBox="0 0 24 8" fill="none" xmlns="http://www.w3.org/2000/svg">
<path d="M1.57781 8C1.33115 8 1.14115 7.93667 1.00781 7.81C0.881146 7.67667 0.817813 7.49 0.817813 7.25C0.817813 7.01 0.881146 6.82667 1.00781 6.7C1.14115 6.57333 1.33115 6.51 1.57781 6.51H2.47781V2.42H3.31781L1.86781 3.31C1.69448 3.41667 1.53115 3.46 1.37781 3.44C1.22448 3.41333 1.09448 3.34667 0.987813 3.24C0.881146 3.13333 0.811146 3.00333 0.777813 2.85C0.744479 2.69667 0.757813 2.54333 0.817813 2.39C0.877813 2.23667 0.997813 2.10667 1.17781 2L2.55781 1.14C2.70448 1.04667 2.85448 0.976666 3.00781 0.93C3.16781 0.883333 3.33448 0.86 3.50781 0.86C3.76115 0.86 3.95781 0.926666 4.09781 1.06C4.23781 1.18667 4.30781 1.37333 4.30781 1.62V6.51H5.10781C5.35448 6.51 5.54115 6.57333 5.66781 6.7C5.80115 6.82667 5.86781 7.01 5.86781 7.25C5.86781 7.49 5.80115 7.67667 5.66781 7.81C5.54115 7.93667 5.35448 8 5.10781 8H1.57781ZM7.44391 8C7.15057 8 6.93724 7.93333 6.80391 7.8C6.67724 7.66 6.61391 7.45667 6.61391 7.19C6.61391 7.00333 6.65391 6.83667 6.73391 6.69C6.82057 6.54333 6.93057 6.4 7.06391 6.26L8.81391 4.43C9.07391 4.15 9.25724 3.91 9.36391 3.71C9.47724 3.51 9.53391 3.31 9.53391 3.11C9.53391 2.85667 9.45057 2.66667 9.28391 2.54C9.11724 2.41333 8.87724 2.35 8.56391 2.35C8.40391 2.35 8.23391 2.37333 8.05391 2.42C7.87391 2.46 7.68057 2.53333 7.47391 2.64C7.29391 2.72 7.13057 2.74333 6.98391 2.71C6.84391 2.67667 6.72391 2.60333 6.62391 2.49C6.53057 2.37667 6.47057 2.24667 6.44391 2.1C6.42391 1.95333 6.44724 1.81 6.51391 1.67C6.58057 1.52333 6.70057 1.40333 6.87391 1.31C7.18057 1.14333 7.49724 1.02333 7.82391 0.95C8.15724 0.876666 8.49057 0.84 8.82391 0.84C9.37057 0.84 9.82724 0.92 10.1939 1.08C10.5672 1.24 10.8506 1.47333 11.0439 1.78C11.2372 2.08 11.3339 2.45333 11.3339 2.9C11.3339 3.18 11.2906 3.45333 11.2039 3.72C11.1239 3.98667 10.9906 4.25333 10.8039 4.52C10.6239 4.78667 10.3806 5.07 10.0739 5.37L8.45391 6.97V6.51H10.9239C11.1706 6.51 11.3572 6.57333 11.4839 6.7C11.6172 6.82667 11.6839 7.01 11.6839 7.25C11.6839 7.49 11.6172 7.67667 11.4839 7.81C11.3572 7.93667 11.1706 8 10.9239 8H7.44391ZM13.44 8C13.1467 8 12.9333 7.93333 12.8 7.8C12.6733 7.66 12.61 7.45667 12.61 7.19C12.61 7.00333 12.65 6.83667 12.73 6.69C12.8167 6.54333 12.9267 6.4 13.06 6.26L14.81 4.43C15.07 4.15 15.2533 3.91 15.36 3.71C15.4733 3.51 15.53 3.31 15.53 3.11C15.53 2.85667 15.4467 2.66667 15.28 2.54C15.1133 2.41333 14.8733 2.35 14.56 2.35C14.4 2.35 14.23 2.37333 14.05 2.42C13.87 2.46 13.6767 2.53333 13.47 2.64C13.29 2.72 13.1267 2.74333 12.98 2.71C12.84 2.67667 12.72 2.60333 12.62 2.49C12.5267 2.37667 12.4667 2.24667 12.44 2.1C12.42 1.95333 12.4433 1.81 12.51 1.67C12.5767 1.52333 12.6967 1.40333 12.87 1.31C13.1767 1.14333 13.4933 1.02333 13.82 0.95C14.1533 0.876666 14.4867 0.84 14.82 0.84C15.3667 0.84 15.8233 0.92 16.19 1.08C16.5633 1.24 16.8467 1.47333 17.04 1.78C17.2333 2.08 17.33 2.45333 17.33 2.9C17.33 3.18 17.2867 3.45333 17.2 3.72C17.12 3.98667 16.9867 4.25333 16.8 4.52C16.62 4.78667 16.3767 5.07 16.07 5.37L14.45 6.97V6.51H16.92C17.1667 6.51 17.3533 6.57333 17.48 6.7C17.6133 6.82667 17.68 7.01 17.68 7.25C17.68 7.49 17.6133 7.67667 17.48 7.81C17.3533 7.93667 17.1667 8 16.92 8H13.44ZM19.4361 8C19.1428 8 18.9294 7.93333 18.7961 7.8C18.6694 7.66 18.6061 7.45667 18.6061 7.19C18.6061 7.00333 18.6461 6.83667 18.7261 6.69C18.8128 6.54333 18.9228 6.4 19.0561 6.26L20.8061 4.43C21.0661 4.15 21.2494 3.91 21.3561 3.71C21.4694 3.51 21.5261 3.31 21.5261 3.11C21.5261 2.85667 21.4428 2.66667 21.2761 2.54C21.1094 2.41333 20.8694 2.35 20.5561 2.35C20.3961 2.35 20.2261 2.37333 20.0461 2.42C19.8661 2.46 19.6728 2.53333 19.4661 2.64C19.2861 2.72 19.1228 2.74333 18.9761 2.71C18.8361 2.67667 18.7161 2.60333 18.6161 2.49C18.5228 2.37667 18.4628 2.24667 18.4361 2.1C18.4161 1.95333 18.4394 1.81 18.5061 1.67C18.5728 1.52333 18.6928 1.40333 18.8661 1.31C19.1728 1.14333 19.4894 1.02333 19.8161 0.95C20.1494 0.876666 20.4828 0.84 20.8161 0.84C21.3628 0.84 21.8194 0.92 22.1861 1.08C22.5594 1.24 22.8428 1.47333 23.0361 1.78C23.2294 2.08 23.3261 2.45333 23.3261 2.9C23.3261 3.18 23.2828 3.45333 23.1961 3.72C23.1161 3.98667 22.9828 4.25333 22.7961 4.52C22.6161 4.78667 22.3728 5.07 22.0661 5.37L20.4461 6.97V6.51H22.9161C23.1628 6.51 23.3494 6.57333 23.4761 6.7C23.6094 6.82667 23.6761 7.01 23.6761 7.25C23.6761 7.49 23.6094 7.67667 23.4761 7.81C23.3494 7.93667 23.1628 8 22.9161 8H19.4361Z" fill="white"/>
</svg>
