<svg width="8" height="11" viewBox="0 0 8 11" fill="none" xmlns="http://www.w3.org/2000/svg">
<path d="M1.81873 11C1.40807 11 1.1094 10.9067 0.922734 10.72C0.745401 10.524 0.656734 10.2393 0.656734 9.866C0.656734 9.60467 0.712734 9.37133 0.824734 9.166C0.946068 8.96067 1.10007 8.76 1.28673 8.564L3.73673 6.002C4.10073 5.61 4.3574 5.274 4.50673 4.994C4.6654 4.714 4.74473 4.434 4.74473 4.154C4.74473 3.79933 4.62807 3.53333 4.39473 3.356C4.1614 3.17867 3.8254 3.09 3.38673 3.09C3.16273 3.09 2.92473 3.12267 2.67273 3.188C2.42073 3.244 2.15007 3.34667 1.86073 3.496C1.60873 3.608 1.38007 3.64067 1.17473 3.594C0.978734 3.54733 0.810734 3.44467 0.670734 3.286C0.540068 3.12733 0.456068 2.94533 0.418734 2.74C0.390734 2.53467 0.423401 2.334 0.516734 2.138C0.610068 1.93267 0.778068 1.76467 1.02073 1.634C1.45007 1.40067 1.8934 1.23267 2.35073 1.13C2.8174 1.02733 3.28407 0.976 3.75073 0.976C4.51607 0.976 5.1554 1.088 5.66873 1.312C6.1914 1.536 6.58807 1.86267 6.85873 2.292C7.1294 2.712 7.26474 3.23467 7.26474 3.86C7.26474 4.252 7.20407 4.63467 7.08273 5.008C6.97073 5.38133 6.78407 5.75467 6.52273 6.128C6.27073 6.50133 5.93007 6.898 5.50073 7.318L3.23273 9.558V8.914H6.69073C7.03607 8.914 7.2974 9.00267 7.47473 9.18C7.6614 9.35733 7.75473 9.614 7.75473 9.95C7.75473 10.286 7.6614 10.5473 7.47473 10.734C7.2974 10.9113 7.03607 11 6.69073 11H1.81873Z" fill="white"/>
</svg>
