<svg width="8" height="12" viewBox="0 0 8 12" fill="none" xmlns="http://www.w3.org/2000/svg">
<path d="M3.70873 11.154C3.23273 11.154 2.75673 11.1073 2.28073 11.014C1.80473 10.9207 1.39407 10.79 1.04873 10.622C0.750068 10.482 0.540068 10.3093 0.418734 10.104C0.306734 9.89867 0.260068 9.68867 0.278734 9.474C0.297401 9.25933 0.372068 9.068 0.502734 8.9C0.642734 8.732 0.820068 8.62 1.03473 8.564C1.25873 8.49867 1.51073 8.52667 1.79073 8.648C2.13607 8.79733 2.4534 8.9 2.74273 8.956C3.03207 9.012 3.3214 9.04 3.61073 9.04C3.94673 9.04 4.22673 9.00267 4.45073 8.928C4.67473 8.85333 4.84273 8.74133 4.95473 8.592C5.06673 8.43333 5.12273 8.23733 5.12273 8.004C5.12273 7.67733 5.00607 7.43933 4.77273 7.29C4.54873 7.13133 4.2174 7.052 3.77873 7.052H3.02273C2.66807 7.052 2.3974 6.96333 2.21073 6.786C2.02407 6.60867 1.93073 6.35667 1.93073 6.03C1.93073 5.70333 2.02407 5.45133 2.21073 5.274C2.3974 5.09667 2.66807 5.008 3.02273 5.008H3.52673C3.7974 5.008 4.02607 4.97067 4.21273 4.896C4.40873 4.82133 4.55807 4.714 4.66073 4.574C4.7634 4.42467 4.81473 4.24267 4.81473 4.028C4.81473 3.72 4.70273 3.48667 4.47873 3.328C4.26407 3.16933 3.94207 3.09 3.51273 3.09C3.2514 3.09 2.9854 3.118 2.71473 3.174C2.44407 3.23 2.15473 3.328 1.84673 3.468C1.60407 3.57067 1.38007 3.594 1.17473 3.538C0.978734 3.482 0.815401 3.37467 0.684734 3.216C0.563401 3.048 0.488734 2.866 0.460734 2.67C0.432734 2.46467 0.465401 2.264 0.558734 2.068C0.652068 1.872 0.829401 1.70867 1.09073 1.578C1.48273 1.382 1.9074 1.23267 2.36473 1.13C2.8314 1.02733 3.29807 0.976 3.76473 0.976C4.50207 0.976 5.13207 1.08333 5.65473 1.298C6.1774 1.51267 6.57407 1.82533 6.84473 2.236C7.12473 2.63733 7.26474 3.12267 7.26474 3.692C7.26474 4.06533 7.19473 4.41067 7.05473 4.728C6.91473 5.04533 6.7094 5.31133 6.43873 5.526C6.16807 5.73133 5.85073 5.88067 5.48673 5.974V5.778C6.14007 5.88067 6.64873 6.156 7.01274 6.604C7.38607 7.04267 7.57273 7.59333 7.57273 8.256C7.57273 8.85333 7.41873 9.37133 7.11073 9.81C6.80273 10.2487 6.3594 10.5847 5.78073 10.818C5.20207 11.042 4.5114 11.154 3.70873 11.154Z" fill="white"/>
</svg>
