<svg width="9" height="11" viewBox="0 0 9 11" fill="none" xmlns="http://www.w3.org/2000/svg">
<path d="M5.48673 10.126C5.09473 10.126 4.78673 10.0187 4.56273 9.804C4.34807 9.58933 4.24073 9.272 4.24073 8.852V8.348H1.42673C1.01607 8.348 0.694068 8.25467 0.460734 8.068C0.236734 7.88133 0.124734 7.59667 0.124734 7.214C0.124734 6.99 0.166734 6.77533 0.250734 6.57C0.334734 6.35533 0.484068 6.09867 0.698734 5.8L4.11473 0.816C4.3014 0.535999 4.5114 0.330666 4.74473 0.199999C4.97807 0.0693327 5.2534 0.00399935 5.57073 0.00399935C5.9254 0.00399935 6.2054 0.111333 6.41073 0.325999C6.61607 0.531333 6.71873 0.848666 6.71873 1.278V6.402H7.05473C7.4094 6.402 7.6754 6.486 7.85274 6.654C8.0394 6.822 8.13273 7.06 8.13273 7.368C8.13273 7.68533 8.0394 7.928 7.85274 8.096C7.6754 8.264 7.4094 8.348 7.05473 8.348H6.71873V8.852C6.71873 9.26267 6.6114 9.58 6.39673 9.804C6.1914 10.0187 5.88807 10.126 5.48673 10.126ZM4.24073 6.402V3.098H4.63273L2.00073 7.004V6.402H4.24073Z" fill="white"/>
</svg>
