<svg width="17" height="12" viewBox="0 0 17 12" fill="none" xmlns="http://www.w3.org/2000/svg">
<path d="M4.80547 11.154C4.01214 11.154 3.32614 11.042 2.74747 10.818C2.1688 10.5847 1.72547 10.2533 1.41747 9.824C1.10947 9.39467 0.955469 8.886 0.955469 8.298C0.955469 7.822 1.0488 7.402 1.23547 7.038C1.43147 6.674 1.69747 6.38 2.03347 6.156C2.36947 5.92267 2.75214 5.78267 3.18147 5.736V6.142C2.6028 6.02067 2.13147 5.736 1.76747 5.288C1.40347 4.84 1.22147 4.30333 1.22147 3.678C1.22147 3.10867 1.36614 2.62333 1.65547 2.222C1.9448 1.82067 2.36014 1.51267 2.90147 1.298C3.4428 1.08333 4.07747 0.976 4.80547 0.976C5.5428 0.976 6.17747 1.08333 6.70947 1.298C7.2508 1.51267 7.66614 1.82067 7.95547 2.222C8.2448 2.62333 8.38947 3.10867 8.38947 3.678C8.38947 4.098 8.30547 4.48533 8.13747 4.84C7.9788 5.18533 7.7548 5.47 7.46547 5.694C7.18547 5.918 6.8588 6.06267 6.48547 6.128V5.736C7.12014 5.82933 7.63814 6.10933 8.03947 6.576C8.45014 7.03333 8.65547 7.60733 8.65547 8.298C8.65547 8.886 8.50147 9.39467 8.19347 9.824C7.88547 10.2533 7.44214 10.5847 6.86347 10.818C6.29414 11.042 5.60814 11.154 4.80547 11.154ZM4.80547 9.222C5.30014 9.222 5.67814 9.12867 5.93947 8.942C6.2008 8.746 6.33147 8.466 6.33147 8.102C6.33147 7.72867 6.2008 7.44867 5.93947 7.262C5.67814 7.07533 5.30014 6.982 4.80547 6.982C4.3108 6.982 3.9328 7.07533 3.67147 7.262C3.41014 7.44867 3.27947 7.72867 3.27947 8.102C3.27947 8.466 3.41014 8.746 3.67147 8.942C3.9328 9.12867 4.3108 9.222 4.80547 9.222ZM4.80547 5.036C5.07614 5.036 5.3048 4.994 5.49147 4.91C5.67814 4.826 5.81814 4.70467 5.91147 4.546C6.01414 4.378 6.06547 4.18667 6.06547 3.972C6.06547 3.64533 5.95347 3.38867 5.72947 3.202C5.50547 3.006 5.19747 2.908 4.80547 2.908C4.41347 2.908 4.10547 3.006 3.88147 3.202C3.6668 3.38867 3.55947 3.64533 3.55947 3.972C3.55947 4.29867 3.6668 4.56 3.88147 4.756C4.10547 4.94267 4.41347 5.036 4.80547 5.036ZM11.478 11.126C11.1607 11.126 10.904 11.056 10.708 10.916C10.512 10.7667 10.4 10.5707 10.372 10.328C10.344 10.0853 10.4093 9.81933 10.568 9.53L14.446 2.488V3.23H10.512C10.1667 3.23 9.896 3.14133 9.7 2.964C9.51333 2.78667 9.42 2.52533 9.42 2.18C9.42 1.83467 9.51333 1.57333 9.7 1.396C9.896 1.21867 10.1667 1.13 10.512 1.13H15.776C16.1213 1.13 16.406 1.22333 16.63 1.41C16.8633 1.59667 16.98 1.86267 16.98 2.208C16.98 2.50667 16.9333 2.768 16.84 2.992C16.756 3.20667 16.6487 3.43533 16.518 3.678L12.934 10.314C12.7847 10.6033 12.5933 10.8133 12.36 10.944C12.136 11.0653 11.842 11.126 11.478 11.126Z" fill="#5EBD2B"/>
</svg>
