<svg width="53" height="53" viewBox="0 0 53 53" fill="none" xmlns="http://www.w3.org/2000/svg">
<path d="M18.3333 45.5556V29.2222C18.3333 26.2153 15.8958 23.7778 12.8889 23.7778H7.44444C4.43756 23.7778 2 26.2153 2 29.2222V45.5556C2 48.5624 4.43756 51 7.44444 51H12.8889C15.8958 51 18.3333 48.5624 18.3333 45.5556ZM18.3333 45.5556V18.3333C18.3333 15.3265 20.7709 12.8889 23.7778 12.8889H29.2222C32.2291 12.8889 34.6667 15.3265 34.6667 18.3333V45.5556M18.3333 45.5556C18.3333 48.5624 20.7709 51 23.7778 51H29.2222C32.2291 51 34.6667 48.5624 34.6667 45.5556M34.6667 45.5556V7.44444C34.6667 4.43756 37.1042 2 40.1111 2H45.5556C48.5624 2 51 4.43756 51 7.44444V45.5556C51 48.5624 48.5624 51 45.5556 51H40.1111C37.1042 51 34.6667 48.5624 34.6667 45.5556Z" stroke="white" stroke-width="4" stroke-linecap="round" stroke-linejoin="round"/>
</svg>
